<svg width="225" height="242" viewBox="0 0 225 242" fill="none" xmlns="http://www.w3.org/2000/svg">
<path d="M202.413 12.1434L203.282 230.724" stroke="black"/>
<path d="M112.934 191.692V230.724" stroke="black"/>
<path d="M114.672 12.1434V54.6452" stroke="black"/>
<path d="M50.3861 173.477V227.254" stroke="black"/>
<path d="M50.3861 32.9606V86.7383" stroke="black"/>
<path d="M172.008 173.477V227.254" stroke="black"/>
<path d="M50.644 123.168C50.644 89.7321 78.3296 62.6414 112.5 62.6414C146.67 62.6414 174.356 89.7321 174.356 123.168C174.356 156.605 146.67 183.696 112.5 183.696C78.3296 183.696 50.644 156.605 50.644 123.168ZM86.4606 130.222L104.519 111.795V156.361C104.519 159.607 107.187 162.218 110.505 162.218H114.495C117.813 162.218 120.481 159.607 120.481 156.361V111.795L138.539 130.222C140.859 132.589 144.725 132.638 147.094 130.319L149.813 127.635C152.158 125.341 152.158 121.631 149.813 119.361L116.74 86.9742C114.396 84.6801 110.604 84.6801 108.285 86.9742L75.1619 119.361C72.8174 121.655 72.8174 125.365 75.1619 127.635L77.8806 130.319C80.275 132.638 84.141 132.589 86.4606 130.222Z" fill="black"/>
<path d="M24.3243 12.1434L24.3243 232.459" stroke="black"/>
<path d="M172.008 32.0932V83.2688" stroke="black"/>
</svg>
